<?xml version="1.0" encoding="UTF-8" standalone="no"?>
<!DOCTYPE svg PUBLIC "-//W3C//DTD SVG 1.1//EN" "http://www.w3.org/Graphics/SVG/1.1/DTD/svg11.dtd">
<svg width="100%" height="100%" viewBox="0 0 2500 2076" version="1.1" xmlns="http://www.w3.org/2000/svg" xmlns:xlink="http://www.w3.org/1999/xlink" xml:space="preserve" xmlns:serif="http://www.serif.com/" style="fill-rule:evenodd;clip-rule:evenodd;stroke-linejoin:round;stroke-miterlimit:2;">
    <g>
        <g transform="matrix(1,0,0,1,188.499,5.02663)">
            <path d="M1051.22,1730.9C1051.22,1730.9 1004.46,1816.36 1077.02,1835.71C1181.02,1863.93 1218.11,1684.95 1218.11,1684.95L1051.22,1730.9Z" style="fill:rgb(74,56,102);fill-rule:nonzero;"/>
        </g>
        <g transform="matrix(1,0,0,1,188.499,5.02663)">
            <path d="M1069.76,1735.74C1069.76,1735.74 1000.43,1896.98 901.259,1863.93C802.094,1830.87 931.089,1723.65 931.089,1723.65L1069.76,1735.74Z" style="fill:rgb(74,56,102);fill-rule:nonzero;"/>
        </g>
        <g transform="matrix(1,0,0,1,188.499,5.02663)">
            <path d="M942.376,1713.97C942.376,1713.97 801.287,1929.23 714.215,1838.94C663.423,1786.53 752.108,1664.79 752.108,1664.79L942.376,1713.97Z" style="fill:rgb(74,56,102);fill-rule:nonzero;"/>
        </g>
    </g>
    <g transform="matrix(1,0,0,1,188.499,5.02663)">
        <path d="M1011.71,94.269C566.931,101.293 206.504,472.63 212.744,917.423C212.901,980.925 220.203,1044.21 234.512,1106.08C155.727,1148.03 104.314,1228.21 99.067,1317.31L228.063,1317.31C228.063,1317.31 71.655,1408.41 64.399,1545.47L182.914,1517.25C109.553,1590.52 61.034,1685.02 44.244,1787.34L452.193,1505.16C599.409,1655.7 801.156,1740.87 1011.71,1741.38C1456.8,1734.8 1817.72,1363.32 1811.49,918.229C1811.55,914.169 1811.58,910.108 1811.58,906.047C1811.58,465.202 1452.51,100.786 1011.71,94.269Z" style="fill:rgb(255,39,83);fill-rule:nonzero;"/>
    </g>
    <g transform="matrix(1,0,0,1,188.499,5.02663)">
        <path d="M854.498,1534.99L1462.39,455.457C1462.39,455.457 1126.19,169.247 854.498,405.471C544.102,675.556 594.894,1329.4 854.498,1534.99Z" style="fill:white;fill-rule:nonzero;"/>
    </g>
    <g transform="matrix(1,0,0,1,188.499,5.02663)">
        <ellipse cx="1025.42" cy="656.206" rx="184.625" ry="189.462" style="fill:rgb(74,56,102);"/>
    </g>
    <g transform="matrix(1,0,0,1,188.499,5.02663)">
        <path d="M1210.04,1222.98L1798.59,1725.26C1798.59,1725.26 2500,752.953 1603.48,503.83L1210.04,1222.98Z" style="fill:rgb(255,221,90);fill-rule:nonzero;"/>
    </g>
    <g transform="matrix(1,0,0,1,188.499,5.02663)">
        <path d="M1875.98,846.475C1928.28,888.05 1958.81,951.325 1958.81,1018.13C1958.81,1067.98 1941.82,1116.36 1910.65,1155.26C1916.53,1051.12 1904.81,946.722 1875.98,846.475Z" style="fill:white;fill-rule:nonzero;"/>
    </g>
</svg>
